<svg width="24" height="25" viewBox="0 0 24 25" fill="none" xmlns="http://www.w3.org/2000/svg">
<path d="M10.59 12.2126L7.29 15.5026C7.19676 15.5959 7.1228 15.7066 7.07234 15.8284C7.02188 15.9502 6.99591 16.0808 6.99591 16.2126C6.99591 16.3445 7.02188 16.4751 7.07234 16.5969C7.1228 16.7187 7.19676 16.8294 7.29 16.9226C7.38324 17.0159 7.49393 17.0898 7.61575 17.1403C7.73757 17.1908 7.86814 17.2167 8 17.2167C8.13186 17.2167 8.26243 17.1908 8.38425 17.1403C8.50607 17.0898 8.61676 17.0159 8.71 16.9226L12.71 12.9226C12.8037 12.8297 12.8781 12.7191 12.9289 12.5972C12.9797 12.4754 13.0058 12.3447 13.0058 12.2126C13.0058 12.0806 12.9797 11.9499 12.9289 11.8281C12.8781 11.7062 12.8037 11.5956 12.71 11.5026L8.71 7.50265C8.61704 7.40892 8.50644 7.33452 8.38458 7.28375C8.26272 7.23298 8.13201 7.20685 8 7.20685C7.86799 7.20685 7.73728 7.23298 7.61542 7.28375C7.49356 7.33452 7.38296 7.40892 7.29 7.50265C7.19627 7.59561 7.12188 7.70621 7.07111 7.82807C7.02034 7.94993 6.9942 8.08063 6.9942 8.21264C6.9942 8.34466 7.02034 8.47536 7.07111 8.59722C7.12188 8.71908 7.19627 8.82968 7.29 8.92264L10.59 12.2126ZM16 17.2126C16.2652 17.2126 16.5196 17.1073 16.7071 16.9198C16.8946 16.7322 17 16.4779 17 16.2126L17 8.21264C17 7.94743 16.8946 7.69307 16.7071 7.50554C16.5196 7.318 16.2652 7.21264 16 7.21264C15.7348 7.21264 15.4804 7.318 15.2929 7.50554C15.1054 7.69307 15 7.94743 15 8.21264L15 16.2126C15 16.4779 15.1054 16.7322 15.2929 16.9198C15.4804 17.1073 15.7348 17.2126 16 17.2126Z" fill="#282828"/>
</svg>
