<svg width="24" height="25" viewBox="0 0 24 25" fill="none" xmlns="http://www.w3.org/2000/svg">
<path d="M13.41 12.2126L16.71 8.92265C16.8032 8.82941 16.8772 8.71872 16.9277 8.5969C16.9781 8.47508 17.0041 8.34451 17.0041 8.21265C17.0041 8.08079 16.9781 7.95022 16.9277 7.8284C16.8772 7.70658 16.8032 7.59589 16.71 7.50265C16.6168 7.40941 16.5061 7.33545 16.3842 7.28499C16.2624 7.23453 16.1319 7.20856 16 7.20856C15.8681 7.20856 15.7376 7.23453 15.6158 7.28499C15.4939 7.33545 15.3832 7.40941 15.29 7.50265L11.29 11.5026C11.1963 11.5956 11.1219 11.7062 11.0711 11.8281C11.0203 11.9499 10.9942 12.0806 10.9942 12.2126C10.9942 12.3447 11.0203 12.4754 11.0711 12.5972C11.1219 12.7191 11.1963 12.8297 11.29 12.9226L15.29 16.9226C15.383 17.0164 15.4936 17.0908 15.6154 17.1415C15.7373 17.1923 15.868 17.2184 16 17.2184C16.132 17.2184 16.2627 17.1923 16.3846 17.1415C16.5064 17.0908 16.617 17.0164 16.71 16.9226C16.8037 16.8297 16.8781 16.7191 16.9289 16.5972C16.9797 16.4754 17.0058 16.3447 17.0058 16.2126C17.0058 16.0806 16.9797 15.9499 16.9289 15.8281C16.8781 15.7062 16.8037 15.5956 16.71 15.5026L13.41 12.2126ZM8 7.21265C7.73478 7.21265 7.48043 7.31801 7.29289 7.50554C7.10536 7.69308 7 7.94743 7 8.21265V16.2126C7 16.4779 7.10536 16.7322 7.29289 16.9198C7.48043 17.1073 7.73478 17.2126 8 17.2126C8.26522 17.2126 8.51957 17.1073 8.70711 16.9198C8.89464 16.7322 9 16.4779 9 16.2126V8.21265C9 7.94743 8.89464 7.69308 8.70711 7.50554C8.51957 7.31801 8.26522 7.21265 8 7.21265Z" fill="#282828"/>
</svg>
