<svg width="25" height="26" viewBox="0 0 25 26" fill="none" xmlns="http://www.w3.org/2000/svg">
<g clip-path="url(#clip0_6_3654)">
<path d="M7.5107 4.08372V7.83527C7.5107 8.1479 7.40128 8.41363 7.18244 8.63247C6.9636 8.85131 6.69787 8.96073 6.38524 8.96073H1.62546C1.31284 8.96073 1.0471 8.85131 0.82826 8.63247C0.60942 8.41363 0.5 8.1479 0.5 7.83527V4.08372C0.5 3.77109 0.60942 3.50536 0.82826 3.28652C1.0471 3.06768 1.31284 2.95826 1.62546 2.95826H6.38524C6.69787 2.95826 6.9636 3.06768 7.18244 3.28652C7.40128 3.50536 7.5107 3.77109 7.5107 4.08372ZM15.9986 15.3384V11.5868C15.9986 11.2742 15.8892 11.0085 15.6703 10.7896C15.4515 10.5708 15.1857 10.4613 14.8731 10.4613H10.1368C9.82416 10.4613 9.55842 10.5708 9.33958 10.7896C9.12074 11.0085 9.01132 11.2742 9.01132 11.5868V15.3384C9.01132 15.651 9.12074 15.9167 9.33958 16.1356C9.55842 16.3544 9.82416 16.4638 10.1368 16.4638H14.8731C15.1857 16.4638 15.4515 16.3544 15.6703 16.1356C15.8892 15.9167 15.9986 15.651 15.9986 15.3384ZM17.4992 4.08372V7.83527C17.4992 8.1479 17.6086 8.41363 17.8275 8.63247C18.0463 8.85131 18.312 8.96073 18.6247 8.96073H23.3844C23.6971 8.96073 23.9628 8.85131 24.1816 8.63247C24.4005 8.41363 24.5099 8.1479 24.5099 7.83527V4.08372C24.5099 3.77109 24.4005 3.50536 24.1816 3.28652C23.9628 3.06768 23.6971 2.95826 23.3844 2.95826H18.6247C18.312 2.95826 18.0463 3.06768 17.8275 3.28652C17.6086 3.50536 17.4992 3.77109 17.4992 4.08372ZM15.9986 7.83527V4.08372C15.9986 3.77109 15.8892 3.50536 15.6703 3.28652C15.4515 3.06768 15.1857 2.95826 14.8731 2.95826H10.1368C9.82416 2.95826 9.55842 3.06768 9.33958 3.28652C9.12074 3.50536 9.01132 3.77109 9.01132 4.08372V7.83527C9.01132 8.1479 9.12074 8.41363 9.33958 8.63247C9.55842 8.85131 9.82416 8.96073 10.1368 8.96073H14.8731C15.1857 8.96073 15.4515 8.85131 15.6703 8.63247C15.8892 8.41363 15.9986 8.1479 15.9986 7.83527ZM6.38524 10.4613H1.62546C1.31284 10.4613 1.0471 10.5708 0.82826 10.7896C0.60942 11.0085 0.5 11.2742 0.5 11.5868V15.3384C0.5 15.651 0.60942 15.9167 0.82826 16.1356C1.0471 16.3544 1.31284 16.4638 1.62546 16.4638H6.38524C6.69787 16.4638 6.9636 16.3544 7.18244 16.1356C7.40128 15.9167 7.5107 15.651 7.5107 15.3384V11.5868C7.5107 11.2742 7.40128 11.0085 7.18244 10.7896C6.9636 10.5708 6.69787 10.4613 6.38524 10.4613ZM0.5 19.0899V22.8415C0.5 23.1541 0.60942 23.4198 0.82826 23.6387C1.0471 23.8575 1.31284 23.9669 1.62546 23.9669H6.38524C6.69787 23.9669 6.9636 23.8575 7.18244 23.6387C7.40128 23.4198 7.5107 23.1541 7.5107 22.8415V19.0899C7.5107 18.7773 7.40128 18.5115 7.18244 18.2927C6.9636 18.0739 6.69787 17.9644 6.38524 17.9644H1.62546C1.31284 17.9644 1.0471 18.0739 0.82826 18.2927C0.60942 18.5115 0.5 18.7773 0.5 19.0899ZM18.6247 16.4638H23.3844C23.6971 16.4638 23.9628 16.3544 24.1816 16.1356C24.4005 15.9167 24.5099 15.651 24.5099 15.3384V11.5868C24.5099 11.2742 24.4005 11.0085 24.1816 10.7896C23.9628 10.5708 23.6971 10.4613 23.3844 10.4613H18.6247C18.312 10.4613 18.0463 10.5708 17.8275 10.7896C17.6086 11.0085 17.4992 11.2742 17.4992 11.5868V15.3384C17.4992 15.651 17.6086 15.9167 17.8275 16.1356C18.0463 16.3544 18.312 16.4638 18.6247 16.4638ZM18.6247 23.9669H23.3844C23.6971 23.9669 23.9628 23.8575 24.1816 23.6387C24.4005 23.4198 24.5099 23.1541 24.5099 22.8415V19.0899C24.5099 18.7773 24.4005 18.5115 24.1816 18.2927C23.9628 18.0739 23.6971 17.9644 23.3844 17.9644H18.6247C18.312 17.9644 18.0463 18.0739 17.8275 18.2927C17.6086 18.5115 17.4992 18.7773 17.4992 19.0899V22.8415C17.4992 23.1541 17.6086 23.4198 17.8275 23.6387C18.0463 23.8575 18.312 23.9669 18.6247 23.9669ZM9.01132 19.0899V22.8415C9.01132 23.1541 9.12074 23.4198 9.33958 23.6387C9.55842 23.8575 9.82416 23.9669 10.1368 23.9669H14.8731C15.1857 23.9669 15.4515 23.8575 15.6703 23.6387C15.8892 23.4198 15.9986 23.1541 15.9986 22.8415V19.0899C15.9986 18.7773 15.8892 18.5115 15.6703 18.2927C15.4515 18.0739 15.1857 17.9644 14.8731 17.9644H10.1368C9.82416 17.9644 9.55842 18.0739 9.33958 18.2927C9.12074 18.5115 9.01132 18.7773 9.01132 19.0899Z" fill="#525CEB"/>
</g>
<defs>
<clipPath id="clip0_6_3654">
<rect width="24.25" height="25" fill="white" transform="matrix(1 0 0 -1 0.5 25.9626)"/>
</clipPath>
</defs>
</svg>
