<svg width="25" height="26" viewBox="0 0 25 26" fill="none" xmlns="http://www.w3.org/2000/svg">
<g clip-path="url(#clip0_6_3656)">
<path d="M4.50155 3.70863H1.50031C1.40652 3.70863 1.31273 3.72817 1.21894 3.76725C1.12515 3.80633 1.03918 3.85713 0.961025 3.91965C0.898499 3.99781 0.847697 4.08378 0.808618 4.17757C0.769539 4.27136 0.75 4.36515 0.75 4.45894V7.46018C0.75 7.55397 0.769539 7.64775 0.808618 7.74154C0.847697 7.83533 0.898499 7.9213 0.961025 7.99946C1.03918 8.06199 1.12515 8.11279 1.21894 8.15187C1.31273 8.19095 1.40652 8.21049 1.50031 8.21049H4.50155C4.59534 8.21049 4.68912 8.19095 4.78291 8.15187C4.8767 8.11279 4.96267 8.06199 5.04083 7.99946C5.10336 7.9213 5.15416 7.83533 5.19324 7.74154C5.23232 7.64775 5.25186 7.55397 5.25186 7.46018V4.45894C5.25186 4.36515 5.23232 4.27136 5.19324 4.17757C5.15416 4.08378 5.10336 3.99781 5.04083 3.91965C4.96267 3.85713 4.8767 3.80633 4.78291 3.76725C4.68912 3.72817 4.59534 3.70863 4.50155 3.70863ZM4.50155 11.2117H1.50031C1.40652 11.2117 1.31273 11.2313 1.21894 11.2703C1.12515 11.3094 1.03918 11.3602 0.961025 11.4227C0.898499 11.5009 0.847697 11.5869 0.808618 11.6807C0.769539 11.7745 0.75 11.8682 0.75 11.962V14.9633C0.75 15.0571 0.769539 15.1508 0.808618 15.2446C0.847697 15.3384 0.898499 15.4244 0.961025 15.5026C1.03918 15.5651 1.12515 15.6159 1.21894 15.655C1.31273 15.694 1.40652 15.7136 1.50031 15.7136H4.50155C4.59534 15.7136 4.68912 15.694 4.78291 15.655C4.8767 15.6159 4.96267 15.5651 5.04083 15.5026C5.10336 15.4244 5.15416 15.3384 5.19324 15.2446C5.23232 15.1508 5.25186 15.0571 5.25186 14.9633V11.962C5.25186 11.8682 5.23232 11.7745 5.19324 11.6807C5.15416 11.5869 5.10336 11.5009 5.04083 11.4227C4.96267 11.3602 4.8767 11.3094 4.78291 11.2703C4.68912 11.2313 4.59534 11.2117 4.50155 11.2117ZM4.50155 18.7148H1.50031C1.40652 18.7148 1.31273 18.7344 1.21894 18.7734C1.12515 18.8125 1.03918 18.8633 0.961025 18.9258C0.898499 19.004 0.847697 19.09 0.808618 19.1838C0.769539 19.2776 0.75 19.3713 0.75 19.4651V22.4664C0.75 22.5602 0.769539 22.6539 0.808618 22.7477C0.847697 22.8415 0.898499 22.9275 0.961025 23.0057C1.03918 23.0682 1.12515 23.119 1.21894 23.1581C1.31273 23.1971 1.40652 23.2167 1.50031 23.2167H4.50155C4.59534 23.2167 4.68912 23.1971 4.78291 23.1581C4.8767 23.119 4.96267 23.0682 5.04083 23.0057C5.10336 22.9275 5.15416 22.8415 5.19324 22.7477C5.23232 22.6539 5.25186 22.5602 5.25186 22.4664V19.4651C5.25186 19.3713 5.23232 19.2776 5.19324 19.1838C5.15416 19.09 5.10336 19.004 5.04083 18.9258C4.96267 18.8633 4.8767 18.8125 4.78291 18.7734C4.68912 18.7344 4.59534 18.7148 4.50155 18.7148ZM24.0096 12.3372H9.0034C8.90961 12.3372 8.81583 12.3567 8.72204 12.3958C8.62825 12.4349 8.54228 12.4857 8.46412 12.5482C8.40159 12.6264 8.35079 12.7123 8.31171 12.8061C8.27263 12.8999 8.25309 12.9937 8.25309 13.0875V13.8378C8.25309 13.9316 8.27263 14.0254 8.31171 14.1192C8.35079 14.213 8.40159 14.2989 8.46412 14.3771C8.54228 14.4396 8.62825 14.4904 8.72204 14.5295C8.81583 14.5686 8.90961 14.5881 9.0034 14.5881H24.0096C24.1034 14.5881 24.1972 14.5686 24.291 14.5295C24.3847 14.4904 24.4707 14.4396 24.5489 14.3771C24.6114 14.2989 24.6622 14.213 24.7013 14.1192C24.7404 14.0254 24.7599 13.9316 24.7599 13.8378V13.0875C24.7599 12.9937 24.7404 12.8999 24.7013 12.8061C24.6622 12.7123 24.6114 12.6264 24.5489 12.5482C24.4707 12.4857 24.3847 12.4349 24.291 12.3958C24.1972 12.3567 24.1034 12.3372 24.0096 12.3372ZM24.0096 19.8403H9.0034C8.90961 19.8403 8.81583 19.8598 8.72204 19.8989C8.62825 19.938 8.54228 19.9888 8.46412 20.0513C8.40159 20.1295 8.35079 20.2154 8.31171 20.3092C8.27263 20.403 8.25309 20.4968 8.25309 20.5906V21.3409C8.25309 21.4347 8.27263 21.5285 8.31171 21.6223C8.35079 21.7161 8.40159 21.802 8.46412 21.8802C8.54228 21.9427 8.62825 21.9935 8.72204 22.0326C8.81583 22.0717 8.90961 22.0912 9.0034 22.0912H24.0096C24.1034 22.0912 24.1972 22.0717 24.291 22.0326C24.3847 21.9935 24.4707 21.9427 24.5489 21.8802C24.6114 21.802 24.6622 21.7161 24.7013 21.6223C24.7404 21.5285 24.7599 21.4347 24.7599 21.3409V20.5906C24.7599 20.4968 24.7404 20.403 24.7013 20.3092C24.6622 20.2154 24.6114 20.1295 24.5489 20.0513C24.4707 19.9888 24.3847 19.938 24.291 19.8989C24.1972 19.8598 24.1034 19.8403 24.0096 19.8403ZM24.0096 4.8341H9.0034C8.90961 4.8341 8.81583 4.85363 8.72204 4.89271C8.62825 4.93179 8.54228 4.98259 8.46412 5.04512C8.40159 5.12328 8.35079 5.20925 8.31171 5.30304C8.27263 5.39683 8.25309 5.49062 8.25309 5.5844V6.33471C8.25309 6.4285 8.27263 6.52229 8.31171 6.61608C8.35079 6.70987 8.40159 6.79584 8.46412 6.874C8.54228 6.93652 8.62825 6.98733 8.72204 7.02641C8.81583 7.06548 8.90961 7.08502 9.0034 7.08502H24.0096C24.1034 7.08502 24.1972 7.06548 24.291 7.02641C24.3847 6.98733 24.4707 6.93652 24.5489 6.874C24.6114 6.79584 24.6622 6.70987 24.7013 6.61608C24.7404 6.52229 24.7599 6.4285 24.7599 6.33471V5.5844C24.7599 5.49062 24.7404 5.39683 24.7013 5.30304C24.6622 5.20925 24.6114 5.12328 24.5489 5.04512C24.4707 4.98259 24.3847 4.93179 24.291 4.89271C24.1972 4.85363 24.1034 4.8341 24.0096 4.8341Z" fill="#212529"/>
</g>
<defs>
<clipPath id="clip0_6_3656">
<rect width="24.25" height="25" fill="white" transform="matrix(1 0 0 -1 0.75 25.9626)"/>
</clipPath>
</defs>
</svg>
