<svg width="24" height="25" viewBox="0 0 24 25" fill="none" xmlns="http://www.w3.org/2000/svg">
<path d="M11.29 12.2127L14.83 8.67266C15.0163 8.48529 15.1208 8.23184 15.1208 7.96766C15.1208 7.70347 15.0163 7.45002 14.83 7.26266C14.737 7.16893 14.6264 7.09453 14.5046 7.04376C14.3827 6.993 14.252 6.96686 14.12 6.96686C13.988 6.96686 13.8573 6.993 13.7354 7.04376C13.6136 7.09453 13.503 7.16893 13.41 7.26266L9.17 11.5027C9.07628 11.5956 9.00188 11.7062 8.95111 11.8281C8.90035 11.9499 8.87421 12.0806 8.87421 12.2127C8.87421 12.3447 8.90035 12.4754 8.95111 12.5972C9.00188 12.7191 9.07628 12.8297 9.17 12.9227L13.41 17.2127C13.5034 17.3053 13.6143 17.3787 13.7361 17.4284C13.8579 17.4782 13.9884 17.5034 14.12 17.5027C14.2516 17.5034 14.3821 17.4782 14.5039 17.4284C14.6257 17.3787 14.7366 17.3053 14.83 17.2127C15.0163 17.0253 15.1208 16.7718 15.1208 16.5077C15.1208 16.2435 15.0163 15.99 14.83 15.8027L11.29 12.2127Z" fill="#282828"/>
</svg>
