<svg width="23" height="24" viewBox="0 0 23 24" fill="none" xmlns="http://www.w3.org/2000/svg">
<g clip-path="url(#clip0_6_3810)">
<path d="M7.48398 22.5913C6.78021 22.5913 6.10264 22.5913 5.45127 22.5913C4.7999 22.5913 4.12982 22.5913 3.44102 22.5913C3.42604 21.7677 3.41855 20.9442 3.41855 20.1206C3.41855 19.297 3.41855 18.4735 3.41855 17.6499C3.41855 16.8263 3.41855 16.0028 3.41855 15.1792C3.41855 14.3556 3.41855 13.5246 3.41855 12.686C2.84954 12.686 2.29551 12.686 1.75645 12.686C1.21738 12.686 0.67832 12.686 0.139258 12.686C0.064388 12.4764 0.0194661 11.8662 0.00449219 10.8555C-0.0104818 9.84473 0.0119792 9.15218 0.071875 8.77783C0.610937 8.77783 1.15374 8.77783 1.70029 8.77783C2.24684 8.77783 2.81211 8.77783 3.39609 8.77783C3.39609 8.65804 3.39984 8.54948 3.40732 8.45215C3.41481 8.35482 3.41855 8.26123 3.41855 8.17139C3.41855 7.73714 3.41481 7.30664 3.40732 6.87988C3.39984 6.45312 3.41107 6.03011 3.44102 5.61084C3.44102 5.34131 3.46348 5.07178 3.5084 4.80225C3.55332 4.53271 3.61322 4.26318 3.68809 3.99365C3.95762 3.12516 4.38438 2.43636 4.96836 1.92725C5.55234 1.41813 6.28607 1.07373 7.16953 0.894043C7.66367 0.789225 8.15781 0.740561 8.65195 0.748047C9.14609 0.755533 9.64023 0.774252 10.1344 0.804199C10.359 0.819174 10.5799 0.837891 10.797 0.860352C11.0141 0.882812 11.235 0.901529 11.4596 0.916504C11.4596 1.50049 11.4596 2.07324 11.4596 2.63477C11.4596 3.19629 11.4596 3.76904 11.4596 4.35303C11.3248 4.35303 11.19 4.35677 11.0553 4.36426C10.9205 4.37174 10.7932 4.38297 10.6734 4.39795C10.359 4.39795 10.0483 4.40169 9.74131 4.40918C9.43434 4.41667 9.12363 4.43538 8.80918 4.46533C8.41986 4.51025 8.11289 4.63753 7.88828 4.84717C7.66367 5.0568 7.54388 5.35628 7.52891 5.74561C7.48398 6.22477 7.46901 6.71143 7.48398 7.20557C7.49896 7.69971 7.50645 8.20133 7.50645 8.71045C8.15033 8.75537 8.79046 8.7666 9.42686 8.74414C10.0632 8.72168 10.7034 8.73291 11.3473 8.77783C11.2724 9.42171 11.1938 10.0618 11.1114 10.6982C11.0291 11.3346 10.943 11.9823 10.8531 12.6411C10.2841 12.6411 9.72259 12.6411 9.16856 12.6411C8.61452 12.6411 8.05299 12.6411 7.48398 12.6411C7.48398 13.4797 7.48398 14.3107 7.48398 15.1343C7.48398 15.9728 7.48398 16.8039 7.48398 17.6274C7.48398 18.451 7.48398 19.2746 7.48398 20.0981C7.48398 20.9367 7.48398 21.7677 7.48398 22.5913Z" fill="#F9F9F9"/>
</g>
<defs>
<clipPath id="clip0_6_3810">
<rect width="23" height="23" fill="white" transform="matrix(1 0 0 -1 0 23.1753)"/>
</clipPath>
</defs>
</svg>
