<svg width="23" height="24" viewBox="0 0 23 24" fill="none" xmlns="http://www.w3.org/2000/svg">
<g clip-path="url(#clip0_6_3816)">
<path d="M16.5425 11.563C16.5275 12.3267 16.3628 13.0454 16.0483 13.7192C15.7489 14.3931 15.3371 14.9771 14.813 15.4712C14.2889 15.9653 13.6825 16.3547 12.9937 16.6392C12.3049 16.9237 11.5711 17.0584 10.7925 17.0435C10.0288 17.0285 9.31006 16.8638 8.63623 16.5493C7.9624 16.2498 7.37842 15.8455 6.88428 15.3364C6.39014 14.8273 6.00081 14.2358 5.71631 13.562C5.4318 12.8882 5.29704 12.1769 5.31201 11.4282C5.32699 10.6646 5.48421 9.9458 5.78369 9.27197C6.09814 8.61312 6.51367 8.03662 7.03027 7.54248C7.54688 7.04834 8.14958 6.65902 8.83838 6.37451C9.52718 6.09001 10.2534 5.95524 11.0171 5.97021C11.7808 5.97021 12.4995 6.11996 13.1733 6.41943C13.8472 6.73389 14.4349 7.14567 14.9365 7.65479C15.4382 8.1639 15.8312 8.75537 16.1157 9.4292C16.4152 10.103 16.5575 10.8143 16.5425 11.563ZM14.5659 11.5181C14.5659 10.5148 14.2028 9.6613 13.4766 8.95752C12.7503 8.25374 11.8556 7.91683 10.7925 7.94678C9.87907 7.96175 9.07048 8.28743 8.3667 8.92383C7.66292 9.56022 7.30355 10.41 7.28857 11.4731C7.2736 12.4614 7.618 13.3075 8.32178 14.0112C9.02555 14.715 9.88656 15.0744 10.9048 15.0894C11.908 15.1043 12.7653 14.7637 13.4766 14.0674C14.1878 13.3711 14.5509 12.5213 14.5659 11.5181ZM15.4644 5.76807C15.4644 6.14242 15.5879 6.44938 15.835 6.68896C16.082 6.92855 16.3853 7.04834 16.7446 7.04834C17.104 7.04834 17.4147 6.92106 17.6768 6.6665C17.9388 6.41195 18.0698 6.11247 18.0698 5.76807C18.0698 5.42367 17.9388 5.12044 17.6768 4.8584C17.4147 4.59635 17.104 4.46533 16.7446 4.46533C16.3853 4.46533 16.0783 4.59261 15.8237 4.84717C15.5692 5.10172 15.4494 5.40869 15.4644 5.76807ZM9.53467 22.2544C8.93571 22.2394 8.33675 22.2244 7.73779 22.2095C7.13883 22.1945 6.53988 22.172 5.94092 22.1421C5.38688 22.1271 4.84408 22.0448 4.3125 21.895C3.78092 21.7453 3.27555 21.5207 2.79639 21.2212C2.04769 20.742 1.45247 20.158 1.01074 19.4692C0.56901 18.7804 0.295736 17.9943 0.190918 17.1108C0.116048 16.5718 0.0673828 16.0252 0.0449219 15.4712C0.0224609 14.9172 0.0112305 14.3631 0.0112305 13.8091C-0.00374349 12.6561 -0.00374349 11.4993 0.0112305 10.3389C0.0262044 9.17839 0.0486654 8.02165 0.0786133 6.86865C0.0935872 6.22477 0.187174 5.6071 0.359375 5.01562C0.531576 4.42415 0.80485 3.85889 1.1792 3.31982C1.67334 2.61605 2.26481 2.0695 2.95361 1.68018C3.64242 1.29085 4.40609 1.04378 5.24463 0.938965C5.84359 0.864096 6.45378 0.81543 7.0752 0.792969C7.69661 0.770508 8.31429 0.759277 8.92822 0.759277C10.0812 0.744303 11.238 0.744303 12.3984 0.759277C13.5589 0.774252 14.7157 0.804199 15.8687 0.849121C16.5125 0.864096 17.1302 0.96517 17.7217 1.15234C18.3132 1.33952 18.8634 1.62777 19.3726 2.01709C20.0763 2.54118 20.6191 3.15137 21.001 3.84766C21.3828 4.54395 21.6187 5.31885 21.7085 6.17236C21.7534 6.69645 21.7871 7.21305 21.8096 7.72217C21.832 8.23128 21.8433 8.74788 21.8433 9.27197C21.8433 10.3052 21.8433 11.3421 21.8433 12.3828C21.8433 13.4235 21.8283 14.4679 21.7983 15.5161C21.7834 15.9204 21.7497 16.3285 21.6973 16.7402C21.6449 17.152 21.5662 17.5601 21.4614 17.9644C21.1619 19.0275 20.6566 19.8885 19.9453 20.5474C19.234 21.2062 18.3468 21.6704 17.2837 21.9399C16.8045 22.0747 16.3179 22.1571 15.8237 22.187C15.3296 22.217 14.828 22.2319 14.3188 22.2319C14.2889 22.2319 14.2552 22.2319 14.2178 22.2319C14.1803 22.2319 14.1466 22.2394 14.1167 22.2544C13.7573 22.2544 13.3979 22.2544 13.0386 22.2544C12.6792 22.2544 12.3198 22.2544 11.9604 22.2544C11.8107 22.2544 11.6572 22.2544 11.5 22.2544C11.3428 22.2544 11.1818 22.2544 11.0171 22.2544C11.0171 22.2544 11.0171 22.2619 11.0171 22.2769C10.7625 22.2769 10.5117 22.2731 10.2646 22.2656C10.0176 22.2581 9.77425 22.2544 9.53467 22.2544ZM1.92041 11.5181C1.93538 11.7576 1.94287 11.9972 1.94287 12.2368C1.94287 12.4764 1.95036 12.716 1.96533 12.9556C1.98031 13.4647 1.99154 13.9701 1.99902 14.4717C2.00651 14.9733 2.01774 15.4712 2.03271 15.9653C2.04769 16.3097 2.08887 16.6466 2.15625 16.9761C2.22363 17.3055 2.32471 17.6349 2.45947 17.9644C2.65413 18.3986 2.91243 18.7729 3.23438 19.0874C3.55632 19.4019 3.94189 19.6489 4.39111 19.8286C4.84033 20.0083 5.30078 20.1243 5.77246 20.1768C6.24414 20.2292 6.71956 20.2629 7.19873 20.2778C8.33675 20.2778 9.47477 20.2816 10.6128 20.2891C11.7508 20.2965 12.8888 20.2928 14.0269 20.2778C14.4162 20.2778 14.798 20.2666 15.1724 20.2441C15.5467 20.2217 15.9211 20.188 16.2954 20.1431C17.2837 20.0233 18.0736 19.6676 18.665 19.0762C19.2565 18.4847 19.6121 17.6948 19.7319 16.7065C19.7769 16.422 19.8068 16.13 19.8218 15.8306C19.8368 15.5311 19.8442 15.2391 19.8442 14.9546C19.8592 13.7567 19.8667 12.5662 19.8667 11.3833C19.8667 10.2004 19.8592 9.01742 19.8442 7.83447C19.8442 7.56494 19.833 7.29915 19.8105 7.03711C19.7881 6.77507 19.7619 6.50928 19.7319 6.23975C19.5972 5.40121 19.3014 4.70866 18.8447 4.16211C18.388 3.61556 17.7479 3.22249 16.9243 2.98291C16.505 2.86312 16.0783 2.79199 15.644 2.76953C15.2098 2.74707 14.7756 2.72835 14.3413 2.71338C13.3381 2.6984 12.3311 2.69092 11.3203 2.69092C10.3096 2.69092 9.29508 2.69092 8.27686 2.69092C7.79769 2.70589 7.31852 2.72461 6.83936 2.74707C6.36019 2.76953 5.88851 2.81071 5.42432 2.87061C4.46598 3.02035 3.71354 3.37598 3.16699 3.9375C2.62044 4.49902 2.2723 5.25895 2.12256 6.21729C2.10758 6.36702 2.09261 6.51302 2.07764 6.65527C2.06266 6.79753 2.04769 6.94352 2.03271 7.09326C2.01774 7.70719 2.00277 8.32113 1.98779 8.93506C1.97282 9.54899 1.95785 10.1629 1.94287 10.7769L1.92041 11.5181Z" fill="#F9F9F9"/>
</g>
<defs>
<clipPath id="clip0_6_3816">
<rect width="23" height="23" fill="white" transform="matrix(1 0 0 -1 0 23.1753)"/>
</clipPath>
</defs>
</svg>
