<svg width="23" height="24" viewBox="0 0 23 24" fill="none" xmlns="http://www.w3.org/2000/svg">
<path d="M2.51562 9.72119C1.94661 9.27197 1.50863 8.75537 1.20166 8.17139C0.894694 7.5874 0.733724 6.93604 0.71875 6.21729C0.703776 5.82796 0.744954 5.43864 0.842285 5.04932C0.939616 4.65999 1.10059 4.27816 1.3252 3.90381C1.9541 4.60758 2.61296 5.229 3.30176 5.76807C4.00553 6.3221 4.743 6.79004 5.51416 7.17188C6.28532 7.55371 7.09766 7.86442 7.95117 8.104C8.81966 8.32861 9.72559 8.47087 10.6689 8.53076C10.654 8.41097 10.6465 8.3099 10.6465 8.22754C10.6465 8.14518 10.639 8.06657 10.624 7.9917C10.5641 7.33284 10.639 6.70394 10.8486 6.10498C11.0583 5.50602 11.369 4.97819 11.7808 4.52148C12.1925 4.06478 12.6904 3.70915 13.2744 3.45459C13.8584 3.18506 14.4798 3.05029 15.1387 3.05029C15.7376 3.05029 16.2917 3.14762 16.8008 3.34229C17.3099 3.53695 17.7816 3.82894 18.2158 4.21826C18.3206 4.30811 18.4292 4.368 18.5415 4.39795C18.6538 4.4279 18.7773 4.42041 18.9121 4.37549C19.2415 4.24072 19.5747 4.1097 19.9116 3.98242C20.2485 3.85514 20.5892 3.73161 20.9336 3.61182C20.9785 3.59684 21.0309 3.57438 21.0908 3.54443C21.1507 3.51449 21.2331 3.47705 21.3379 3.43213C21.2331 3.70166 21.1283 3.94124 21.0234 4.15088C20.9186 4.36051 20.7913 4.55518 20.6416 4.73486C20.4919 4.89958 20.3346 5.06803 20.1699 5.24023C20.0052 5.41243 19.8555 5.61084 19.7207 5.83545C20.0651 5.74561 20.4132 5.65202 20.7651 5.55469C21.117 5.45736 21.4727 5.36377 21.832 5.27393C21.6823 5.57341 21.5026 5.83171 21.293 6.04883C21.0833 6.26595 20.8737 6.47933 20.6641 6.68896C20.5143 6.8387 20.3496 6.97347 20.1699 7.09326C19.9902 7.21305 19.863 7.36279 19.7881 7.54248C19.6982 7.72217 19.6683 7.92057 19.6982 8.1377C19.7282 8.35482 19.7357 8.5682 19.7207 8.77783C19.6458 9.85596 19.4474 10.9004 19.1255 11.9111C18.8035 12.9219 18.3431 13.884 17.7441 14.7974C17.0853 15.8455 16.3516 16.7515 15.543 17.5151C14.7194 18.2638 13.8322 18.8853 12.8813 19.3794C11.9305 19.8735 10.9085 20.2404 9.81543 20.48C8.72233 20.7046 7.56185 20.8094 6.33398 20.7944C5.21094 20.7645 4.12533 20.5923 3.07715 20.2778C2.02897 19.9634 1.02572 19.5216 0.0673828 18.9526C0.0524089 18.9377 0.0411784 18.9189 0.0336914 18.8965C0.0262044 18.874 0.014974 18.8478 0 18.8179C1.15299 18.8778 2.26481 18.7729 3.33545 18.5034C4.40609 18.2339 5.43555 17.7323 6.42383 16.9985C6.19922 16.9536 6.00081 16.9124 5.82861 16.875C5.65641 16.8376 5.48796 16.7889 5.32324 16.729C5.14355 16.6691 4.97135 16.6055 4.80664 16.5381C4.64193 16.4707 4.47721 16.3921 4.3125 16.3022C4.16276 16.2274 4.02051 16.1375 3.88574 16.0327C3.75098 15.9279 3.61621 15.8156 3.48145 15.6958C3.36165 15.576 3.24186 15.445 3.12207 15.3027C3.00228 15.1605 2.89746 15.0145 2.80762 14.8647C2.7028 14.715 2.60921 14.5578 2.52686 14.3931C2.4445 14.2284 2.35091 14.0412 2.24609 13.8315C2.57552 13.8315 2.875 13.8315 3.14453 13.8315C3.41406 13.8315 3.68359 13.8315 3.95312 13.8315C3.9681 13.8016 3.97933 13.7791 3.98682 13.7642C3.9943 13.7492 4.00553 13.7342 4.02051 13.7192C3.00228 13.3299 2.20492 12.7834 1.62842 12.0796C1.05192 11.3758 0.733724 10.4699 0.673828 9.36182C0.988281 9.45166 1.28776 9.53776 1.57227 9.62012C1.85677 9.70247 2.14128 9.78109 2.42578 9.85596C2.44076 9.84098 2.45573 9.82227 2.4707 9.7998C2.48568 9.77734 2.50065 9.75114 2.51562 9.72119Z" fill="#F9F9F9"/>
</svg>
