<svg width="23" height="24" viewBox="0 0 23 24" fill="none" xmlns="http://www.w3.org/2000/svg">
<g clip-path="url(#clip0_6_3814)">
<path d="M5.23404 3.31982C5.23404 2.61605 4.97574 2.01335 4.45914 1.51172C3.94254 1.01009 3.32486 0.759277 2.60611 0.759277C1.88736 0.744303 1.27343 0.991373 0.764314 1.50049C0.255199 2.0096 0.000641741 2.61605 0.000641741 3.31982C-0.0143322 4.03857 0.232738 4.64876 0.741853 5.15039C1.25097 5.65202 1.8649 5.91032 2.58365 5.92529C3.3024 5.94027 3.92756 5.68571 4.45914 5.16162C4.99071 4.63753 5.24901 4.0236 5.23404 3.31982ZM12.2643 22.1196H7.83951C7.80956 21.9998 7.77961 21.2362 7.74967 19.8286C7.73469 18.4061 7.72346 16.8488 7.71597 15.1567C7.70849 13.4647 7.71223 11.8849 7.7272 10.4175C7.7272 8.95003 7.74218 8.104 7.77213 7.87939C8.28124 7.84945 8.79784 7.83447 9.32193 7.83447C9.84602 7.83447 10.3776 7.84196 10.9167 7.85693C11.0963 7.85693 11.2835 7.85693 11.4782 7.85693C11.6728 7.85693 11.8675 7.85693 12.0622 7.85693V9.63135C12.0771 9.63135 12.0884 9.63135 12.0959 9.63135C12.1033 9.63135 12.1071 9.63135 12.1071 9.63135C12.1221 9.63135 12.1333 9.63135 12.1408 9.63135C12.1483 9.63135 12.1595 9.63883 12.1745 9.65381C12.1894 9.63883 12.2007 9.62386 12.2082 9.60889C12.2156 9.59391 12.2194 9.58643 12.2194 9.58643C12.2493 9.55648 12.2793 9.52653 12.3092 9.49658C12.3392 9.46663 12.3691 9.4292 12.3991 9.38428C12.8483 8.81527 13.3724 8.37728 13.9713 8.07031C14.5703 7.76335 15.2217 7.57992 15.9254 7.52002C16.4645 7.4751 16.9923 7.48633 17.5089 7.55371C18.0255 7.62109 18.5309 7.75212 19.0251 7.94678C19.5042 8.15641 19.916 8.42969 20.2604 8.7666C20.6048 9.10352 20.8893 9.50407 21.1139 9.96826C21.3685 10.5073 21.5482 11.0688 21.653 11.6528C21.7578 12.2368 21.8102 12.8208 21.8102 13.4048C21.8252 14.453 21.8327 15.4974 21.8327 16.5381C21.8327 17.5788 21.8327 18.6157 21.8327 19.6489C21.8327 19.9784 21.8327 20.3078 21.8327 20.6372C21.8327 20.9666 21.8327 21.2961 21.8327 21.6255C21.8327 21.6854 21.8327 21.7378 21.8327 21.7827C21.8327 21.8276 21.8252 21.88 21.8102 21.9399C21.8102 21.9699 21.8065 21.9998 21.799 22.0298C21.7915 22.0597 21.7878 22.0897 21.7878 22.1196H17.3629C17.3629 22.0747 17.3592 22.0298 17.3517 21.9849C17.3442 21.9399 17.3405 21.9025 17.3405 21.8726C17.3405 21.7827 17.3367 21.6929 17.3293 21.603C17.3218 21.5132 17.318 21.4233 17.318 21.3335C17.318 20.9741 17.318 20.6147 17.318 20.2554C17.318 19.896 17.3105 19.5291 17.2956 19.1548C17.2956 18.3462 17.2956 17.5339 17.2956 16.7178C17.2956 15.9017 17.2881 15.0894 17.2731 14.2808C17.2731 14.0262 17.2506 13.7679 17.2057 13.5059C17.1608 13.2438 17.1009 12.993 17.026 12.7534C16.9062 12.394 16.7191 12.1095 16.4645 11.8999C16.21 11.6903 15.903 11.5555 15.5436 11.4956C15.2741 11.4357 15.0045 11.4132 14.735 11.4282C14.4655 11.4432 14.196 11.4881 13.9264 11.563C13.5521 11.6828 13.2451 11.8662 13.0055 12.1133C12.7659 12.3604 12.6012 12.6711 12.5114 13.0454C12.4365 13.3449 12.3804 13.6444 12.3429 13.9438C12.3055 14.2433 12.2793 14.5428 12.2643 14.8423C12.2643 15.6359 12.2643 16.437 12.2643 17.2456C12.2643 18.0542 12.2643 18.8553 12.2643 19.6489C12.2643 19.9484 12.2643 20.2516 12.2643 20.5586C12.2643 20.8656 12.2643 21.1688 12.2643 21.4683C12.2643 21.5731 12.2643 21.6742 12.2643 21.7715C12.2643 21.8688 12.2643 21.9849 12.2643 22.1196ZM4.8522 22.0972H0.472321C0.442374 21.9924 0.419913 21.2437 0.404939 19.8511C0.374991 18.4585 0.356273 16.9162 0.348786 15.2241C0.341299 13.5321 0.337556 11.9523 0.337556 10.4849C0.35253 9.00244 0.374991 8.13395 0.404939 7.87939C0.973949 7.84945 1.54296 7.83447 2.11197 7.83447C2.68098 7.83447 3.24999 7.84196 3.819 7.85693C3.96874 7.85693 4.12597 7.85693 4.29068 7.85693C4.45539 7.85693 4.62011 7.85693 4.78482 7.85693C4.81477 7.97673 4.84472 8.73291 4.87467 10.1255C4.88964 11.5181 4.90461 13.0529 4.91959 14.73C4.93456 16.4071 4.93456 17.9793 4.91959 19.4468C4.90461 20.9292 4.88215 21.8127 4.8522 22.0972Z" fill="#F9F9F9"/>
</g>
<defs>
<clipPath id="clip0_6_3814">
<rect width="23" height="23" fill="white" transform="matrix(1 0 0 -1 0 23.1753)"/>
</clipPath>
</defs>
</svg>
