<svg width="24" height="25" viewBox="0 0 24 25" fill="none" xmlns="http://www.w3.org/2000/svg">
<path d="M14.83 11.5027L10.59 7.26266C10.497 7.16893 10.3864 7.09453 10.2646 7.04376C10.1427 6.993 10.012 6.96686 9.88 6.96686C9.74799 6.96686 9.61729 6.993 9.49543 7.04376C9.37357 7.09453 9.26297 7.16893 9.17 7.26266C8.98375 7.45002 8.87921 7.70347 8.87921 7.96766C8.87921 8.23184 8.98375 8.48529 9.17 8.67266L12.71 12.2127L9.17 15.7527C8.98375 15.94 8.87921 16.1935 8.87921 16.4577C8.87921 16.7218 8.98375 16.9753 9.17 17.1627C9.26344 17.2553 9.37426 17.3287 9.4961 17.3784C9.61794 17.4282 9.7484 17.4534 9.88 17.4527C10.0116 17.4534 10.1421 17.4282 10.2639 17.3784C10.3857 17.3287 10.4966 17.2553 10.59 17.1627L14.83 12.9227C14.9237 12.8297 14.9981 12.7191 15.0489 12.5972C15.0997 12.4754 15.1258 12.3447 15.1258 12.2127C15.1258 12.0806 15.0997 11.9499 15.0489 11.8281C14.9981 11.7062 14.9237 11.5956 14.83 11.5027Z" fill="#282828"/>
</svg>
