<svg width="24" height="25" viewBox="0 0 24 25" fill="none" xmlns="http://www.w3.org/2000/svg">
<path d="M10 18.4626C10.2652 18.4626 10.5196 18.3573 10.7071 18.1698C10.8946 17.9822 11 17.7279 11 17.4626V11.4626C11 11.1974 10.8946 10.9431 10.7071 10.7555C10.5196 10.568 10.2652 10.4626 10 10.4626C9.73478 10.4626 9.48043 10.568 9.29289 10.7555C9.10536 10.9431 9 11.1974 9 11.4626V17.4626C9 17.7279 9.10536 17.9822 9.29289 18.1698C9.48043 18.3573 9.73478 18.4626 10 18.4626ZM20 6.46265H16V5.46265C16 4.667 15.6839 3.90394 15.1213 3.34133C14.5587 2.77872 13.7956 2.46265 13 2.46265H11C10.2044 2.46265 9.44129 2.77872 8.87868 3.34133C8.31607 3.90394 8 4.667 8 5.46265V6.46265H4C3.73478 6.46265 3.48043 6.568 3.29289 6.75554C3.10536 6.94308 3 7.19743 3 7.46265C3 7.72786 3.10536 7.98222 3.29289 8.16975C3.48043 8.35729 3.73478 8.46265 4 8.46265H5V19.4626C5 20.2583 5.31607 21.0214 5.87868 21.584C6.44129 22.1466 7.20435 22.4626 8 22.4626H16C16.7956 22.4626 17.5587 22.1466 18.1213 21.584C18.6839 21.0214 19 20.2583 19 19.4626V8.46265H20C20.2652 8.46265 20.5196 8.35729 20.7071 8.16975C20.8946 7.98222 21 7.72786 21 7.46265C21 7.19743 20.8946 6.94308 20.7071 6.75554C20.5196 6.568 20.2652 6.46265 20 6.46265ZM10 5.46265C10 5.19743 10.1054 4.94308 10.2929 4.75554C10.4804 4.568 10.7348 4.46265 11 4.46265H13C13.2652 4.46265 13.5196 4.568 13.7071 4.75554C13.8946 4.94308 14 5.19743 14 5.46265V6.46265H10V5.46265ZM17 19.4626C17 19.7279 16.8946 19.9822 16.7071 20.1698C16.5196 20.3573 16.2652 20.4626 16 20.4626H8C7.73478 20.4626 7.48043 20.3573 7.29289 20.1698C7.10536 19.9822 7 19.7279 7 19.4626V8.46265H17V19.4626ZM14 18.4626C14.2652 18.4626 14.5196 18.3573 14.7071 18.1698C14.8946 17.9822 15 17.7279 15 17.4626V11.4626C15 11.1974 14.8946 10.9431 14.7071 10.7555C14.5196 10.568 14.2652 10.4626 14 10.4626C13.7348 10.4626 13.4804 10.568 13.2929 10.7555C13.1054 10.9431 13 11.1974 13 11.4626V17.4626C13 17.7279 13.1054 17.9822 13.2929 18.1698C13.4804 18.3573 13.7348 18.4626 14 18.4626Z" fill="#F2415A"/>
</svg>
